<mxfile host="app.diagrams.net" agent="Mozilla/5.0 (Windows NT 10.0; Win64; x64) AppleWebKit/537.36 (KHTML, like Gecko) Chrome/131.0.0.0 Safari/537.36" version="26.0.15" pages="2">
  <diagram id="C5RBs43oDa-KdzZeNtuy" name="Architecture">
    <mxGraphModel dx="1134" dy="637" grid="1" gridSize="10" guides="1" tooltips="1" connect="1" arrows="1" fold="1" page="1" pageScale="1" pageWidth="827" pageHeight="1169" math="0" shadow="0">
      <root>
        <mxCell id="WIyWlLk6GJQsqaUBKTNV-0" />
        <mxCell id="WIyWlLk6GJQsqaUBKTNV-1" parent="WIyWlLk6GJQsqaUBKTNV-0" />
        <mxCell id="NEDVoSVQhKtcuy1m-H4u-9" style="edgeStyle=orthogonalEdgeStyle;rounded=0;orthogonalLoop=1;jettySize=auto;html=1;" edge="1" parent="WIyWlLk6GJQsqaUBKTNV-1" source="NEDVoSVQhKtcuy1m-H4u-0" target="NEDVoSVQhKtcuy1m-H4u-3">
          <mxGeometry relative="1" as="geometry" />
        </mxCell>
        <mxCell id="NEDVoSVQhKtcuy1m-H4u-19" value="Storing image,Store results, Manage account permissions &amp;amp; Trigger open AI" style="edgeLabel;html=1;align=center;verticalAlign=middle;resizable=0;points=[];fontStyle=1;fontColor=#FF6666;" vertex="1" connectable="0" parent="NEDVoSVQhKtcuy1m-H4u-9">
          <mxGeometry x="-0.2" relative="1" as="geometry">
            <mxPoint as="offset" />
          </mxGeometry>
        </mxCell>
        <mxCell id="NEDVoSVQhKtcuy1m-H4u-0" value="Supabase" style="rounded=1;whiteSpace=wrap;html=1;" vertex="1" parent="WIyWlLk6GJQsqaUBKTNV-1">
          <mxGeometry x="345" y="260" width="80" height="40" as="geometry" />
        </mxCell>
        <mxCell id="NEDVoSVQhKtcuy1m-H4u-5" style="edgeStyle=orthogonalEdgeStyle;rounded=0;orthogonalLoop=1;jettySize=auto;html=1;" edge="1" parent="WIyWlLk6GJQsqaUBKTNV-1" source="NEDVoSVQhKtcuy1m-H4u-1" target="NEDVoSVQhKtcuy1m-H4u-0">
          <mxGeometry relative="1" as="geometry" />
        </mxCell>
        <mxCell id="NEDVoSVQhKtcuy1m-H4u-17" value="&lt;font color=&quot;#ff6666&quot;&gt;&lt;b&gt;UI/UX -Triggers workflow and send to server side(DB - Supabase)&lt;/b&gt;&lt;/font&gt;" style="edgeLabel;html=1;align=center;verticalAlign=middle;resizable=0;points=[];" vertex="1" connectable="0" parent="NEDVoSVQhKtcuy1m-H4u-5">
          <mxGeometry x="-0.0857" y="-1" relative="1" as="geometry">
            <mxPoint as="offset" />
          </mxGeometry>
        </mxCell>
        <mxCell id="QL6etCz1HkS1SuqrumSL-0" style="edgeStyle=orthogonalEdgeStyle;rounded=0;orthogonalLoop=1;jettySize=auto;html=1;entryX=0;entryY=0.5;entryDx=0;entryDy=0;" edge="1" parent="WIyWlLk6GJQsqaUBKTNV-1" source="NEDVoSVQhKtcuy1m-H4u-1" target="NEDVoSVQhKtcuy1m-H4u-3">
          <mxGeometry relative="1" as="geometry">
            <Array as="points">
              <mxPoint x="140" y="170" />
              <mxPoint x="140" y="380" />
            </Array>
          </mxGeometry>
        </mxCell>
        <mxCell id="NEDVoSVQhKtcuy1m-H4u-1" value="Bubble.io" style="rounded=1;whiteSpace=wrap;html=1;" vertex="1" parent="WIyWlLk6GJQsqaUBKTNV-1">
          <mxGeometry x="340" y="150" width="90" height="40" as="geometry" />
        </mxCell>
        <mxCell id="NEDVoSVQhKtcuy1m-H4u-14" style="edgeStyle=orthogonalEdgeStyle;rounded=0;orthogonalLoop=1;jettySize=auto;html=1;" edge="1" parent="WIyWlLk6GJQsqaUBKTNV-1" source="NEDVoSVQhKtcuy1m-H4u-2" target="NEDVoSVQhKtcuy1m-H4u-12">
          <mxGeometry relative="1" as="geometry" />
        </mxCell>
        <mxCell id="NEDVoSVQhKtcuy1m-H4u-18" value="&lt;font color=&quot;#ff6666&quot;&gt;&lt;b&gt;Maintain version history of backend scripts,integration &amp;amp; update&lt;/b&gt;&lt;/font&gt;" style="edgeLabel;html=1;align=center;verticalAlign=middle;resizable=0;points=[];fontSize=9;" vertex="1" connectable="0" parent="NEDVoSVQhKtcuy1m-H4u-14">
          <mxGeometry x="-0.2667" y="-2" relative="1" as="geometry">
            <mxPoint x="34" y="-2" as="offset" />
          </mxGeometry>
        </mxCell>
        <mxCell id="NEDVoSVQhKtcuy1m-H4u-2" value="Proceed Output" style="rounded=1;whiteSpace=wrap;html=1;" vertex="1" parent="WIyWlLk6GJQsqaUBKTNV-1">
          <mxGeometry x="340" y="470" width="90" height="40" as="geometry" />
        </mxCell>
        <mxCell id="NEDVoSVQhKtcuy1m-H4u-10" style="edgeStyle=orthogonalEdgeStyle;rounded=0;orthogonalLoop=1;jettySize=auto;html=1;" edge="1" parent="WIyWlLk6GJQsqaUBKTNV-1" source="NEDVoSVQhKtcuy1m-H4u-3" target="NEDVoSVQhKtcuy1m-H4u-2">
          <mxGeometry relative="1" as="geometry" />
        </mxCell>
        <mxCell id="NEDVoSVQhKtcuy1m-H4u-13" value="Identifiy,Analyse and Tag image" style="edgeLabel;html=1;align=center;verticalAlign=middle;resizable=0;points=[];fontStyle=1;fontColor=#FF6666;" vertex="1" connectable="0" parent="NEDVoSVQhKtcuy1m-H4u-10">
          <mxGeometry x="-0.2286" relative="1" as="geometry">
            <mxPoint as="offset" />
          </mxGeometry>
        </mxCell>
        <mxCell id="QL6etCz1HkS1SuqrumSL-1" style="edgeStyle=orthogonalEdgeStyle;rounded=0;orthogonalLoop=1;jettySize=auto;html=1;entryX=1;entryY=0.5;entryDx=0;entryDy=0;" edge="1" parent="WIyWlLk6GJQsqaUBKTNV-1" source="NEDVoSVQhKtcuy1m-H4u-3" target="NEDVoSVQhKtcuy1m-H4u-1">
          <mxGeometry relative="1" as="geometry">
            <Array as="points">
              <mxPoint x="570" y="380" />
              <mxPoint x="570" y="170" />
            </Array>
          </mxGeometry>
        </mxCell>
        <mxCell id="QL6etCz1HkS1SuqrumSL-2" value="Returns back with product info" style="edgeLabel;html=1;align=center;verticalAlign=middle;resizable=0;points=[];" vertex="1" connectable="0" parent="QL6etCz1HkS1SuqrumSL-1">
          <mxGeometry x="0.1059" y="1" relative="1" as="geometry">
            <mxPoint y="1" as="offset" />
          </mxGeometry>
        </mxCell>
        <mxCell id="NEDVoSVQhKtcuy1m-H4u-3" value="Open AI" style="rounded=1;whiteSpace=wrap;html=1;" vertex="1" parent="WIyWlLk6GJQsqaUBKTNV-1">
          <mxGeometry x="345" y="360" width="80" height="40" as="geometry" />
        </mxCell>
        <mxCell id="NEDVoSVQhKtcuy1m-H4u-15" style="edgeStyle=orthogonalEdgeStyle;rounded=0;orthogonalLoop=1;jettySize=auto;html=1;" edge="1" parent="WIyWlLk6GJQsqaUBKTNV-1" source="NEDVoSVQhKtcuy1m-H4u-11" target="NEDVoSVQhKtcuy1m-H4u-1">
          <mxGeometry relative="1" as="geometry" />
        </mxCell>
        <mxCell id="NEDVoSVQhKtcuy1m-H4u-16" value="&lt;font color=&quot;#ff6666&quot;&gt;Raw Image&lt;/font&gt;" style="edgeLabel;html=1;align=center;verticalAlign=middle;resizable=0;points=[];fontStyle=1" vertex="1" connectable="0" parent="NEDVoSVQhKtcuy1m-H4u-15">
          <mxGeometry x="0.0667" y="-2" relative="1" as="geometry">
            <mxPoint as="offset" />
          </mxGeometry>
        </mxCell>
        <mxCell id="NEDVoSVQhKtcuy1m-H4u-11" value="User Input" style="rounded=1;whiteSpace=wrap;html=1;" vertex="1" parent="WIyWlLk6GJQsqaUBKTNV-1">
          <mxGeometry x="340" y="50" width="90" height="40" as="geometry" />
        </mxCell>
        <mxCell id="NEDVoSVQhKtcuy1m-H4u-12" value="GitHub" style="rounded=1;whiteSpace=wrap;html=1;" vertex="1" parent="WIyWlLk6GJQsqaUBKTNV-1">
          <mxGeometry x="750" y="470" width="90" height="40" as="geometry" />
        </mxCell>
      </root>
    </mxGraphModel>
  </diagram>
  <diagram id="Q3o2NnzkxkieZg4zCf19" name="HighLevelflow">
    <mxGraphModel dx="794" dy="446" grid="1" gridSize="10" guides="1" tooltips="1" connect="1" arrows="1" fold="1" page="1" pageScale="1" pageWidth="850" pageHeight="1100" math="0" shadow="0">
      <root>
        <mxCell id="0" />
        <mxCell id="1" parent="0" />
        <mxCell id="905CJsv8g2yLD0v0TDoV-26" style="edgeStyle=orthogonalEdgeStyle;rounded=0;orthogonalLoop=1;jettySize=auto;html=1;" parent="1" source="VOaNAVWbp-fdxto7Niiu-1" target="905CJsv8g2yLD0v0TDoV-1" edge="1">
          <mxGeometry relative="1" as="geometry" />
        </mxCell>
        <mxCell id="VOaNAVWbp-fdxto7Niiu-1" value="Signin" style="rounded=1;whiteSpace=wrap;html=1;" parent="1" vertex="1">
          <mxGeometry x="430" y="145" width="50" height="40" as="geometry" />
        </mxCell>
        <mxCell id="905CJsv8g2yLD0v0TDoV-5" style="edgeStyle=orthogonalEdgeStyle;rounded=0;orthogonalLoop=1;jettySize=auto;html=1;" parent="1" source="VOaNAVWbp-fdxto7Niiu-2" target="905CJsv8g2yLD0v0TDoV-4" edge="1">
          <mxGeometry relative="1" as="geometry" />
        </mxCell>
        <mxCell id="VOaNAVWbp-fdxto7Niiu-2" value="Process Image" style="rounded=1;whiteSpace=wrap;html=1;" parent="1" vertex="1">
          <mxGeometry x="110" y="205" width="120" height="50" as="geometry" />
        </mxCell>
        <mxCell id="VOaNAVWbp-fdxto7Niiu-16" style="edgeStyle=orthogonalEdgeStyle;rounded=0;orthogonalLoop=1;jettySize=auto;html=1;entryX=0.5;entryY=1;entryDx=0;entryDy=0;" parent="1" source="VOaNAVWbp-fdxto7Niiu-10" target="VOaNAVWbp-fdxto7Niiu-11" edge="1">
          <mxGeometry relative="1" as="geometry">
            <Array as="points">
              <mxPoint x="315" y="160" />
              <mxPoint x="135" y="160" />
            </Array>
          </mxGeometry>
        </mxCell>
        <mxCell id="VOaNAVWbp-fdxto7Niiu-17" value="No" style="edgeLabel;html=1;align=center;verticalAlign=middle;resizable=0;points=[];fontStyle=0" parent="VOaNAVWbp-fdxto7Niiu-16" vertex="1" connectable="0">
          <mxGeometry x="-0.2962" y="-1" relative="1" as="geometry">
            <mxPoint x="-23" as="offset" />
          </mxGeometry>
        </mxCell>
        <mxCell id="VOaNAVWbp-fdxto7Niiu-31" value="Retry" style="edgeLabel;html=1;align=center;verticalAlign=middle;resizable=0;points=[];fontStyle=1" parent="VOaNAVWbp-fdxto7Niiu-16" vertex="1" connectable="0">
          <mxGeometry x="0.6372" y="-1" relative="1" as="geometry">
            <mxPoint as="offset" />
          </mxGeometry>
        </mxCell>
        <mxCell id="VOaNAVWbp-fdxto7Niiu-19" style="edgeStyle=orthogonalEdgeStyle;rounded=0;orthogonalLoop=1;jettySize=auto;html=1;" parent="1" source="VOaNAVWbp-fdxto7Niiu-10" target="VOaNAVWbp-fdxto7Niiu-18" edge="1">
          <mxGeometry relative="1" as="geometry" />
        </mxCell>
        <mxCell id="VOaNAVWbp-fdxto7Niiu-20" value="Yes" style="edgeLabel;html=1;align=center;verticalAlign=middle;resizable=0;points=[];fontStyle=0" parent="VOaNAVWbp-fdxto7Niiu-19" vertex="1" connectable="0">
          <mxGeometry x="-0.1515" y="-1" relative="1" as="geometry">
            <mxPoint as="offset" />
          </mxGeometry>
        </mxCell>
        <mxCell id="VOaNAVWbp-fdxto7Niiu-10" value="Image count =2&amp;nbsp;" style="rhombus;whiteSpace=wrap;html=1;" parent="1" vertex="1">
          <mxGeometry x="260" y="35" width="110" height="110" as="geometry" />
        </mxCell>
        <mxCell id="VOaNAVWbp-fdxto7Niiu-14" style="edgeStyle=orthogonalEdgeStyle;rounded=0;orthogonalLoop=1;jettySize=auto;html=1;" parent="1" source="VOaNAVWbp-fdxto7Niiu-11" target="VOaNAVWbp-fdxto7Niiu-10" edge="1">
          <mxGeometry relative="1" as="geometry" />
        </mxCell>
        <mxCell id="VOaNAVWbp-fdxto7Niiu-11" value="user input(image count =2)" style="rounded=1;whiteSpace=wrap;html=1;" parent="1" vertex="1">
          <mxGeometry x="80" y="70" width="110" height="40" as="geometry" />
        </mxCell>
        <mxCell id="VOaNAVWbp-fdxto7Niiu-24" style="edgeStyle=orthogonalEdgeStyle;rounded=0;orthogonalLoop=1;jettySize=auto;html=1;entryX=0.5;entryY=0;entryDx=0;entryDy=0;" parent="1" source="VOaNAVWbp-fdxto7Niiu-18" target="VOaNAVWbp-fdxto7Niiu-23" edge="1">
          <mxGeometry relative="1" as="geometry" />
        </mxCell>
        <mxCell id="VOaNAVWbp-fdxto7Niiu-25" value="No" style="edgeLabel;html=1;align=center;verticalAlign=middle;resizable=0;points=[];fontStyle=0" parent="VOaNAVWbp-fdxto7Niiu-24" vertex="1" connectable="0">
          <mxGeometry x="-0.2627" y="1" relative="1" as="geometry">
            <mxPoint as="offset" />
          </mxGeometry>
        </mxCell>
        <mxCell id="905CJsv8g2yLD0v0TDoV-25" style="edgeStyle=orthogonalEdgeStyle;rounded=0;orthogonalLoop=1;jettySize=auto;html=1;" parent="1" source="VOaNAVWbp-fdxto7Niiu-18" edge="1">
          <mxGeometry relative="1" as="geometry">
            <mxPoint x="480" y="165" as="targetPoint" />
            <Array as="points">
              <mxPoint x="535" y="165" />
              <mxPoint x="480" y="165" />
            </Array>
          </mxGeometry>
        </mxCell>
        <mxCell id="905CJsv8g2yLD0v0TDoV-27" value="Yes" style="edgeLabel;html=1;align=center;verticalAlign=middle;resizable=0;points=[];" parent="905CJsv8g2yLD0v0TDoV-25" vertex="1" connectable="0">
          <mxGeometry x="-0.5712" y="-2" relative="1" as="geometry">
            <mxPoint as="offset" />
          </mxGeometry>
        </mxCell>
        <mxCell id="VOaNAVWbp-fdxto7Niiu-18" value="Already customer&amp;nbsp;" style="rhombus;whiteSpace=wrap;html=1;" parent="1" vertex="1">
          <mxGeometry x="480" y="35" width="110" height="110" as="geometry" />
        </mxCell>
        <mxCell id="905CJsv8g2yLD0v0TDoV-2" style="edgeStyle=orthogonalEdgeStyle;rounded=0;orthogonalLoop=1;jettySize=auto;html=1;entryX=1;entryY=0.5;entryDx=0;entryDy=0;" parent="1" source="VOaNAVWbp-fdxto7Niiu-23" target="D17YN2bgwpqN3F09aB3V-1" edge="1">
          <mxGeometry relative="1" as="geometry">
            <Array as="points">
              <mxPoint x="675" y="230" />
              <mxPoint x="660" y="230" />
            </Array>
          </mxGeometry>
        </mxCell>
        <mxCell id="VOaNAVWbp-fdxto7Niiu-23" value="Fill name of product &amp;amp; Upload image" style="rounded=1;whiteSpace=wrap;html=1;" parent="1" vertex="1">
          <mxGeometry x="620" y="120" width="110" height="40" as="geometry" />
        </mxCell>
        <mxCell id="905CJsv8g2yLD0v0TDoV-3" style="edgeStyle=orthogonalEdgeStyle;rounded=0;orthogonalLoop=1;jettySize=auto;html=1;" parent="1" source="905CJsv8g2yLD0v0TDoV-1" target="VOaNAVWbp-fdxto7Niiu-2" edge="1">
          <mxGeometry relative="1" as="geometry" />
        </mxCell>
        <mxCell id="905CJsv8g2yLD0v0TDoV-1" value="Trigger Fast Api(via (Ngork" style="rounded=1;whiteSpace=wrap;html=1;" parent="1" vertex="1">
          <mxGeometry x="305" y="205" width="120" height="50" as="geometry" />
        </mxCell>
        <mxCell id="905CJsv8g2yLD0v0TDoV-12" style="edgeStyle=orthogonalEdgeStyle;rounded=0;orthogonalLoop=1;jettySize=auto;html=1;" parent="1" source="905CJsv8g2yLD0v0TDoV-4" target="905CJsv8g2yLD0v0TDoV-9" edge="1">
          <mxGeometry relative="1" as="geometry" />
        </mxCell>
        <mxCell id="905CJsv8g2yLD0v0TDoV-15" value="No" style="edgeLabel;html=1;align=center;verticalAlign=middle;resizable=0;points=[];" parent="905CJsv8g2yLD0v0TDoV-12" vertex="1" connectable="0">
          <mxGeometry x="-0.08" y="-2" relative="1" as="geometry">
            <mxPoint as="offset" />
          </mxGeometry>
        </mxCell>
        <mxCell id="905CJsv8g2yLD0v0TDoV-4" value="Error&amp;nbsp;&lt;div&gt;404/422&lt;/div&gt;" style="rhombus;whiteSpace=wrap;html=1;" parent="1" vertex="1">
          <mxGeometry x="122.5" y="280" width="95" height="90" as="geometry" />
        </mxCell>
        <mxCell id="905CJsv8g2yLD0v0TDoV-6" style="edgeStyle=orthogonalEdgeStyle;rounded=0;orthogonalLoop=1;jettySize=auto;html=1;exitX=1;exitY=0.5;exitDx=0;exitDy=0;" parent="1" source="905CJsv8g2yLD0v0TDoV-4" edge="1">
          <mxGeometry relative="1" as="geometry">
            <mxPoint x="370" y="254" as="targetPoint" />
            <Array as="points">
              <mxPoint x="218" y="290" />
              <mxPoint x="370" y="290" />
            </Array>
          </mxGeometry>
        </mxCell>
        <mxCell id="905CJsv8g2yLD0v0TDoV-7" value="Retry" style="edgeLabel;html=1;align=center;verticalAlign=middle;resizable=0;points=[];fontStyle=1" parent="905CJsv8g2yLD0v0TDoV-6" vertex="1" connectable="0">
          <mxGeometry x="-0.0043" y="-3" relative="1" as="geometry">
            <mxPoint as="offset" />
          </mxGeometry>
        </mxCell>
        <mxCell id="905CJsv8g2yLD0v0TDoV-8" value="Yes" style="edgeLabel;html=1;align=center;verticalAlign=middle;resizable=0;points=[];" parent="905CJsv8g2yLD0v0TDoV-6" vertex="1" connectable="0">
          <mxGeometry x="-0.8278" relative="1" as="geometry">
            <mxPoint as="offset" />
          </mxGeometry>
        </mxCell>
        <mxCell id="905CJsv8g2yLD0v0TDoV-14" style="edgeStyle=orthogonalEdgeStyle;rounded=0;orthogonalLoop=1;jettySize=auto;html=1;entryX=0;entryY=0.5;entryDx=0;entryDy=0;" parent="1" source="905CJsv8g2yLD0v0TDoV-9" target="905CJsv8g2yLD0v0TDoV-13" edge="1">
          <mxGeometry relative="1" as="geometry" />
        </mxCell>
        <mxCell id="905CJsv8g2yLD0v0TDoV-9" value="AI Model analyses image" style="rounded=1;whiteSpace=wrap;html=1;" parent="1" vertex="1">
          <mxGeometry x="110" y="440" width="120" height="50" as="geometry" />
        </mxCell>
        <mxCell id="905CJsv8g2yLD0v0TDoV-19" style="edgeStyle=orthogonalEdgeStyle;rounded=0;orthogonalLoop=1;jettySize=auto;html=1;" parent="1" source="905CJsv8g2yLD0v0TDoV-13" target="905CJsv8g2yLD0v0TDoV-18" edge="1">
          <mxGeometry relative="1" as="geometry" />
        </mxCell>
        <mxCell id="905CJsv8g2yLD0v0TDoV-20" value="No" style="edgeLabel;html=1;align=center;verticalAlign=middle;resizable=0;points=[];" parent="905CJsv8g2yLD0v0TDoV-19" vertex="1" connectable="0">
          <mxGeometry x="-0.1686" y="-5" relative="1" as="geometry">
            <mxPoint x="-1" as="offset" />
          </mxGeometry>
        </mxCell>
        <mxCell id="905CJsv8g2yLD0v0TDoV-13" value="Success= False" style="rhombus;whiteSpace=wrap;html=1;" parent="1" vertex="1">
          <mxGeometry x="260" y="420" width="95" height="90" as="geometry" />
        </mxCell>
        <mxCell id="905CJsv8g2yLD0v0TDoV-16" style="edgeStyle=orthogonalEdgeStyle;rounded=0;orthogonalLoop=1;jettySize=auto;html=1;entryX=0.893;entryY=0.996;entryDx=0;entryDy=0;entryPerimeter=0;" parent="1" source="905CJsv8g2yLD0v0TDoV-13" target="905CJsv8g2yLD0v0TDoV-1" edge="1">
          <mxGeometry relative="1" as="geometry" />
        </mxCell>
        <mxCell id="905CJsv8g2yLD0v0TDoV-17" value="Yes" style="edgeLabel;html=1;align=center;verticalAlign=middle;resizable=0;points=[];" parent="905CJsv8g2yLD0v0TDoV-16" vertex="1" connectable="0">
          <mxGeometry x="-0.7009" y="-1" relative="1" as="geometry">
            <mxPoint as="offset" />
          </mxGeometry>
        </mxCell>
        <mxCell id="905CJsv8g2yLD0v0TDoV-23" style="edgeStyle=orthogonalEdgeStyle;rounded=0;orthogonalLoop=1;jettySize=auto;html=1;" parent="1" source="905CJsv8g2yLD0v0TDoV-18" target="905CJsv8g2yLD0v0TDoV-22" edge="1">
          <mxGeometry relative="1" as="geometry" />
        </mxCell>
        <mxCell id="905CJsv8g2yLD0v0TDoV-18" value="Parse Responses" style="rounded=1;whiteSpace=wrap;html=1;" parent="1" vertex="1">
          <mxGeometry x="405" y="440" width="100" height="50" as="geometry" />
        </mxCell>
        <mxCell id="905CJsv8g2yLD0v0TDoV-21" value="Name of product,era,&lt;div&gt;condition,&lt;/div&gt;&lt;div&gt;material,value stored in Database&lt;/div&gt;" style="rounded=1;whiteSpace=wrap;html=1;" parent="1" vertex="1">
          <mxGeometry x="670" y="435" width="140" height="60" as="geometry" />
        </mxCell>
        <mxCell id="905CJsv8g2yLD0v0TDoV-24" style="edgeStyle=orthogonalEdgeStyle;rounded=0;orthogonalLoop=1;jettySize=auto;html=1;" parent="1" source="905CJsv8g2yLD0v0TDoV-22" target="905CJsv8g2yLD0v0TDoV-21" edge="1">
          <mxGeometry relative="1" as="geometry" />
        </mxCell>
        <mxCell id="905CJsv8g2yLD0v0TDoV-22" value="Show in the Client" style="rounded=1;whiteSpace=wrap;html=1;" parent="1" vertex="1">
          <mxGeometry x="540" y="440" width="100" height="50" as="geometry" />
        </mxCell>
        <mxCell id="D17YN2bgwpqN3F09aB3V-3" style="edgeStyle=orthogonalEdgeStyle;rounded=0;orthogonalLoop=1;jettySize=auto;html=1;entryX=1;entryY=0.5;entryDx=0;entryDy=0;" edge="1" parent="1" source="D17YN2bgwpqN3F09aB3V-1" target="905CJsv8g2yLD0v0TDoV-1">
          <mxGeometry relative="1" as="geometry" />
        </mxCell>
        <mxCell id="D17YN2bgwpqN3F09aB3V-1" value="Name of product saved to Database" style="rounded=1;whiteSpace=wrap;html=1;" vertex="1" parent="1">
          <mxGeometry x="500" y="210" width="110" height="40" as="geometry" />
        </mxCell>
      </root>
    </mxGraphModel>
  </diagram>
</mxfile>
